<svg xmlns="http://www.w3.org/2000/svg" xmlns:xlink="http://www.w3.org/1999/xlink" width="83.032" height="102.274" viewBox="0 0 83.032 102.274">
  <defs>
    <filter id="Tracé_132" x="4.031" y="4.031" width="79.001" height="98.243" filterUnits="userSpaceOnUse">
      <feOffset dy="3" input="SourceAlpha"/>
      <feGaussianBlur stdDeviation="3" result="blur"/>
      <feFlood flood-opacity="0.161"/>
      <feComposite operator="in" in2="blur"/>
      <feComposite in="SourceGraphic"/>
    </filter>
    <filter id="Tracé_132-2" x="0" y="0" width="79.001" height="98.243" filterUnits="userSpaceOnUse">
      <feOffset dy="3" input="SourceAlpha"/>
      <feGaussianBlur stdDeviation="3" result="blur-2"/>
      <feFlood flood-opacity="0.161"/>
      <feComposite operator="in" in2="blur-2"/>
      <feComposite in="SourceGraphic"/>
    </filter>
  </defs>
  <g id="cartes" transform="translate(8.893 6)">
    <g id="id" transform="translate(8.062 8.062)">
      <path id="Tracé_132-3" data-name="Tracé 132" d="M83.35,23.959H31.826A4.738,4.738,0,0,0,27.088,28.7V99.464a4.738,4.738,0,0,0,4.738,4.738H83.35a4.738,4.738,0,0,0,4.738-4.738V28.7a4.738,4.738,0,0,0-4.738-4.738Z" transform="translate(-26.98 -23.959)" fill="#ededed"/>
      <path id="Tracé_133" data-name="Tracé 133" d="M26.989,73.71V94.947a4.738,4.738,0,0,0,4.738,4.738H83.252a4.738,4.738,0,0,0,4.738-4.738V73.71Z" transform="translate(-26.989 -19.442)" fill="#ea5a06"/>
      <path id="Tracé_134" data-name="Tracé 134" d="M51.285,57.642h8.194v9.632H51.285Z" transform="translate(-24.783 -20.901)" fill="#d89e79"/>
      <path id="Tracé_135" data-name="Tracé 135" d="M73.732,75.385a38.914,38.914,0,0,0-1.081-6.275,3,3,0,0,0-1.059-1.562c-4.3-3.333-10.73-5.311-10.73-5.311l-4.352,4.62v0l-4.35-4.619s-6.427,1.977-10.73,5.311a3,3,0,0,0-1.059,1.562,38.91,38.91,0,0,0-1.081,6.275,56.529,56.529,0,0,0-.278,9.074l17.5,0h17.5A56.527,56.527,0,0,0,73.732,75.385Z" transform="translate(-25.904 -20.483)" fill="#088559"/>
      <path id="Tracé_136" data-name="Tracé 136" d="M61.337,62.675c-.794-.288-1.28-.437-1.28-.437l-4.351,4.621v0l-4.35-4.619s-.486.149-1.28.437c-.6.215-1.378.508-2.253.877l.526,6.543.92,1.55.242,1.985c2.057,7.96,6.2,10.824,6.2,10.824h0c.028-.019,4.145-2.895,6.2-10.828l.242-1.985.92-1.55.526-6.543C62.715,63.184,61.938,62.89,61.337,62.675Z" transform="translate(-25.098 -20.483)" fill="#dbd8dd"/>
      <path id="Tracé_137" data-name="Tracé 137" d="M56.1,66.473H54.2l-.948,1.539.948,2.681h1.9l.948-2.681Z" transform="translate(-24.605 -20.099)" fill="#088559"/>
      <path id="Tracé_138" data-name="Tracé 138" d="M59.156,61.355l-4.107,5.583,2.873,3.438,3.322-7.4Z" transform="translate(-24.442 -20.564)" fill="#ededed"/>
      <path id="Tracé_139" data-name="Tracé 139" d="M51.459,61.358l4.107,5.583-2.873,3.438-3.322-7.4Z" transform="translate(-24.957 -20.563)" fill="#ededed"/>
      <path id="Tracé_140" data-name="Tracé 140" d="M56.732,82.315l-1.543,1.426-1.665-1.975.633-11.631h1.939Z" transform="translate(-24.58 -19.766)" fill="#088559"/>
      <path id="Tracé_141" data-name="Tracé 141" d="M48.533,72.01l-.716,1.52A17.255,17.255,0,0,0,55.78,84.439c-5.131-7.613-5.592-19.983-5.631-21.779,0-.144,0-.22,0-.22l-2.248,1.1-.882,7.4Z" transform="translate(-25.171 -20.465)" fill="#9bd373"/>
      <path id="Tracé_142" data-name="Tracé 142" d="M62.3,72.007l.716,1.52a17.273,17.273,0,0,1-7.962,10.914c5.131-7.613,5.593-19.988,5.632-21.784,0-.144,0-.22,0-.22l2.248,1.1.882,7.4Z" transform="translate(-24.442 -20.465)" fill="#9bd373"/>
      <path id="Tracé_143" data-name="Tracé 143" d="M63.6,50.981c-.589-.114-1.236.663-1.443,1.735s.1,2.034.691,2.148,1.236-.663,1.443-1.735S64.194,51.1,63.6,50.981Z" transform="translate(-23.802 -21.506)" fill="#d89e79"/>
      <path id="Tracé_144" data-name="Tracé 144" d="M46.8,50.981c.589-.114,1.236.663,1.443,1.735s-.1,2.034-.691,2.148-1.236-.663-1.443-1.735S46.215,51.1,46.8,50.981Z" transform="translate(-25.259 -21.506)" fill="#d89e79"/>
      <path id="Tracé_145" data-name="Tracé 145" d="M64.53,49.953c0,.968.431,2.011.15,3.115-1.171,4.716-4.671,10-8.8,10-4.086,0-7.542-5.122-8.757-9.782a13.254,13.254,0,0,1-.484-3.354c0-4.93,4.362-5.626,9.236-5.9.135-.011-.078-1.038.057-1.038l-.028.624c.2,0,.589-1.054.792-1.043.169.011.287,1.1.456,1.12.1,0-.409-.663-.308-.64C61.275,43.742,64.53,45.326,64.53,49.953Z" transform="translate(-25.206 -22.269)" fill="#e8ca96"/>
      <g id="Groupe_150" data-name="Groupe 150" transform="translate(13.215 16.264)">
        <path id="Tracé_146" data-name="Tracé 146" d="M65.659,45.469c-.506-3.035-3.568-2.1-3.568-2.1l0,.008-.006-.006.01,0s.625-.627-.226-2.334-5.142-2.842-9.256-1.707-5.931,3.725-6.64,8.087c-.593,3.65.661,5.531,1.088,6.049l.567,1.791h.5l1.2-6.848c2.417-1.757,7.684-.844,11.3-3.656.568,2.243-.474,3.209,2.645,8.4l.424,2.1h.5l.463-1.463,0,0A16.489,16.489,0,0,0,65.659,45.469Z" transform="translate(-38.496 -38.869)" fill="#344d5b"/>
        <path id="Tracé_147" data-name="Tracé 147" d="M76.792,86.473H42.007V91.1H76.792Z" transform="translate(-42.007 -33.659)" fill="#1a1a18"/>
      </g>
    </g>
    <g id="id-2" data-name="id" transform="translate(4.031 4.031)">
      <g transform="matrix(1, 0, 0, 1, -12.92, -10.03)" filter="url(#Tracé_132)">
        <path id="Tracé_132-4" data-name="Tracé 132" d="M83.35,23.959H31.826A4.738,4.738,0,0,0,27.088,28.7V99.464a4.738,4.738,0,0,0,4.738,4.738H83.35a4.738,4.738,0,0,0,4.738-4.738V28.7a4.738,4.738,0,0,0-4.738-4.738Z" transform="translate(-14.06 -13.93)" fill="#ededed"/>
      </g>
      <path id="Tracé_133-2" data-name="Tracé 133" d="M26.989,73.71V94.947a4.738,4.738,0,0,0,4.738,4.738H83.252a4.738,4.738,0,0,0,4.738-4.738V73.71Z" transform="translate(-26.989 -19.442)" fill="#ea5a06"/>
      <path id="Tracé_134-2" data-name="Tracé 134" d="M51.285,57.642h8.194v9.632H51.285Z" transform="translate(-24.783 -20.901)" fill="#d89e79"/>
      <path id="Tracé_135-2" data-name="Tracé 135" d="M73.732,75.385a38.914,38.914,0,0,0-1.081-6.275,3,3,0,0,0-1.059-1.562c-4.3-3.333-10.73-5.311-10.73-5.311l-4.352,4.62v0l-4.35-4.619s-6.427,1.977-10.73,5.311a3,3,0,0,0-1.059,1.562,38.91,38.91,0,0,0-1.081,6.275,56.529,56.529,0,0,0-.278,9.074l17.5,0h17.5A56.527,56.527,0,0,0,73.732,75.385Z" transform="translate(-25.904 -20.483)" fill="#088559"/>
      <path id="Tracé_136-2" data-name="Tracé 136" d="M61.337,62.675c-.794-.288-1.28-.437-1.28-.437l-4.351,4.621v0l-4.35-4.619s-.486.149-1.28.437c-.6.215-1.378.508-2.253.877l.526,6.543.92,1.55.242,1.985c2.057,7.96,6.2,10.824,6.2,10.824h0c.028-.019,4.145-2.895,6.2-10.828l.242-1.985.92-1.55.526-6.543C62.715,63.184,61.938,62.89,61.337,62.675Z" transform="translate(-25.098 -20.483)" fill="#dbd8dd"/>
      <path id="Tracé_137-2" data-name="Tracé 137" d="M56.1,66.473H54.2l-.948,1.539.948,2.681h1.9l.948-2.681Z" transform="translate(-24.605 -20.099)" fill="#088559"/>
      <path id="Tracé_138-2" data-name="Tracé 138" d="M59.156,61.355l-4.107,5.583,2.873,3.438,3.322-7.4Z" transform="translate(-24.442 -20.564)" fill="#ededed"/>
      <path id="Tracé_139-2" data-name="Tracé 139" d="M51.459,61.358l4.107,5.583-2.873,3.438-3.322-7.4Z" transform="translate(-24.957 -20.563)" fill="#ededed"/>
      <path id="Tracé_140-2" data-name="Tracé 140" d="M56.732,82.315l-1.543,1.426-1.665-1.975.633-11.631h1.939Z" transform="translate(-24.58 -19.766)" fill="#088559"/>
      <path id="Tracé_141-2" data-name="Tracé 141" d="M48.533,72.01l-.716,1.52A17.255,17.255,0,0,0,55.78,84.439c-5.131-7.613-5.592-19.983-5.631-21.779,0-.144,0-.22,0-.22l-2.248,1.1-.882,7.4Z" transform="translate(-25.171 -20.465)" fill="#9bd373"/>
      <path id="Tracé_142-2" data-name="Tracé 142" d="M62.3,72.007l.716,1.52a17.273,17.273,0,0,1-7.962,10.914c5.131-7.613,5.593-19.988,5.632-21.784,0-.144,0-.22,0-.22l2.248,1.1.882,7.4Z" transform="translate(-24.442 -20.465)" fill="#9bd373"/>
      <path id="Tracé_143-2" data-name="Tracé 143" d="M63.6,50.981c-.589-.114-1.236.663-1.443,1.735s.1,2.034.691,2.148,1.236-.663,1.443-1.735S64.194,51.1,63.6,50.981Z" transform="translate(-23.802 -21.506)" fill="#d89e79"/>
      <path id="Tracé_144-2" data-name="Tracé 144" d="M46.8,50.981c.589-.114,1.236.663,1.443,1.735s-.1,2.034-.691,2.148-1.236-.663-1.443-1.735S46.215,51.1,46.8,50.981Z" transform="translate(-25.259 -21.506)" fill="#d89e79"/>
      <path id="Tracé_145-2" data-name="Tracé 145" d="M64.53,49.953c0,.968.431,2.011.15,3.115-1.171,4.716-4.671,10-8.8,10-4.086,0-7.542-5.122-8.757-9.782a13.254,13.254,0,0,1-.484-3.354c0-4.93,4.362-5.626,9.236-5.9.135-.011-.078-1.038.057-1.038l-.028.624c.2,0,.589-1.054.792-1.043.169.011.287,1.1.456,1.12.1,0-.409-.663-.308-.64C61.275,43.742,64.53,45.326,64.53,49.953Z" transform="translate(-25.206 -22.269)" fill="#e8ca96"/>
      <g id="Groupe_150-2" data-name="Groupe 150" transform="translate(13.215 16.264)">
        <path id="Tracé_146-2" data-name="Tracé 146" d="M65.659,45.469c-.506-3.035-3.568-2.1-3.568-2.1l0,.008-.006-.006.01,0s.625-.627-.226-2.334-5.142-2.842-9.256-1.707-5.931,3.725-6.64,8.087c-.593,3.65.661,5.531,1.088,6.049l.567,1.791h.5l1.2-6.848c2.417-1.757,7.684-.844,11.3-3.656.568,2.243-.474,3.209,2.645,8.4l.424,2.1h.5l.463-1.463,0,0A16.489,16.489,0,0,0,65.659,45.469Z" transform="translate(-38.496 -38.869)" fill="#344d5b"/>
        <path id="Tracé_147-2" data-name="Tracé 147" d="M76.792,86.473H42.007V91.1H76.792Z" transform="translate(-42.007 -33.659)" fill="#1a1a18"/>
      </g>
    </g>
    <g id="id-3" data-name="id">
      <g transform="matrix(1, 0, 0, 1, -8.89, -6)" filter="url(#Tracé_132-2)">
        <path id="Tracé_132-5" data-name="Tracé 132" d="M83.35,23.959H31.826A4.738,4.738,0,0,0,27.088,28.7V99.464a4.738,4.738,0,0,0,4.738,4.738H83.35a4.738,4.738,0,0,0,4.738-4.738V28.7a4.738,4.738,0,0,0-4.738-4.738Z" transform="translate(-18.09 -17.96)" fill="#ededed"/>
      </g>
      <path id="Tracé_133-3" data-name="Tracé 133" d="M26.989,73.71V94.947a4.738,4.738,0,0,0,4.738,4.738H83.252a4.738,4.738,0,0,0,4.738-4.738V73.71Z" transform="translate(-26.989 -19.442)" fill="#ea5a06"/>
      <path id="Tracé_134-3" data-name="Tracé 134" d="M51.285,57.642h8.194v9.632H51.285Z" transform="translate(-24.783 -20.901)" fill="#d89e79"/>
      <path id="Tracé_135-3" data-name="Tracé 135" d="M73.732,75.385a38.914,38.914,0,0,0-1.081-6.275,3,3,0,0,0-1.059-1.562c-4.3-3.333-10.73-5.311-10.73-5.311l-4.352,4.62v0l-4.35-4.619s-6.427,1.977-10.73,5.311a3,3,0,0,0-1.059,1.562,38.91,38.91,0,0,0-1.081,6.275,56.529,56.529,0,0,0-.278,9.074l17.5,0h17.5A56.527,56.527,0,0,0,73.732,75.385Z" transform="translate(-25.904 -20.483)" fill="#088559"/>
      <path id="Tracé_136-3" data-name="Tracé 136" d="M61.337,62.675c-.794-.288-1.28-.437-1.28-.437l-4.351,4.621v0l-4.35-4.619s-.486.149-1.28.437c-.6.215-1.378.508-2.253.877l.526,6.543.92,1.55.242,1.985c2.057,7.96,6.2,10.824,6.2,10.824h0c.028-.019,4.145-2.895,6.2-10.828l.242-1.985.92-1.55.526-6.543C62.715,63.184,61.938,62.89,61.337,62.675Z" transform="translate(-25.098 -20.483)" fill="#dbd8dd"/>
      <path id="Tracé_137-3" data-name="Tracé 137" d="M56.1,66.473H54.2l-.948,1.539.948,2.681h1.9l.948-2.681Z" transform="translate(-24.605 -20.099)" fill="#088559"/>
      <path id="Tracé_138-3" data-name="Tracé 138" d="M59.156,61.355l-4.107,5.583,2.873,3.438,3.322-7.4Z" transform="translate(-24.442 -20.564)" fill="#ededed"/>
      <path id="Tracé_139-3" data-name="Tracé 139" d="M51.459,61.358l4.107,5.583-2.873,3.438-3.322-7.4Z" transform="translate(-24.957 -20.563)" fill="#ededed"/>
      <path id="Tracé_140-3" data-name="Tracé 140" d="M56.732,82.315l-1.543,1.426-1.665-1.975.633-11.631h1.939Z" transform="translate(-24.58 -19.766)" fill="#088559"/>
      <path id="Tracé_141-3" data-name="Tracé 141" d="M48.533,72.01l-.716,1.52A17.255,17.255,0,0,0,55.78,84.439c-5.131-7.613-5.592-19.983-5.631-21.779,0-.144,0-.22,0-.22l-2.248,1.1-.882,7.4Z" transform="translate(-25.171 -20.465)" fill="#9bd373"/>
      <path id="Tracé_142-3" data-name="Tracé 142" d="M62.3,72.007l.716,1.52a17.273,17.273,0,0,1-7.962,10.914c5.131-7.613,5.593-19.988,5.632-21.784,0-.144,0-.22,0-.22l2.248,1.1.882,7.4Z" transform="translate(-24.442 -20.465)" fill="#9bd373"/>
      <path id="Tracé_143-3" data-name="Tracé 143" d="M63.6,50.981c-.589-.114-1.236.663-1.443,1.735s.1,2.034.691,2.148,1.236-.663,1.443-1.735S64.194,51.1,63.6,50.981Z" transform="translate(-23.802 -21.506)" fill="#d89e79"/>
      <path id="Tracé_144-3" data-name="Tracé 144" d="M46.8,50.981c.589-.114,1.236.663,1.443,1.735s-.1,2.034-.691,2.148-1.236-.663-1.443-1.735S46.215,51.1,46.8,50.981Z" transform="translate(-25.259 -21.506)" fill="#d89e79"/>
      <path id="Tracé_145-3" data-name="Tracé 145" d="M64.53,49.953c0,.968.431,2.011.15,3.115-1.171,4.716-4.671,10-8.8,10-4.086,0-7.542-5.122-8.757-9.782a13.254,13.254,0,0,1-.484-3.354c0-4.93,4.362-5.626,9.236-5.9.135-.011-.078-1.038.057-1.038l-.028.624c.2,0,.589-1.054.792-1.043.169.011.287,1.1.456,1.12.1,0-.409-.663-.308-.64C61.275,43.742,64.53,45.326,64.53,49.953Z" transform="translate(-25.206 -22.269)" fill="#e8ca96"/>
      <g id="Groupe_150-3" data-name="Groupe 150" transform="translate(13.215 16.264)">
        <path id="Tracé_146-3" data-name="Tracé 146" d="M65.659,45.469c-.506-3.035-3.568-2.1-3.568-2.1l0,.008-.006-.006.01,0s.625-.627-.226-2.334-5.142-2.842-9.256-1.707-5.931,3.725-6.64,8.087c-.593,3.65.661,5.531,1.088,6.049l.567,1.791h.5l1.2-6.848c2.417-1.757,7.684-.844,11.3-3.656.568,2.243-.474,3.209,2.645,8.4l.424,2.1h.5l.463-1.463,0,0A16.489,16.489,0,0,0,65.659,45.469Z" transform="translate(-38.496 -38.869)" fill="#344d5b"/>
        <path id="Tracé_147-3" data-name="Tracé 147" d="M76.792,86.473H42.007V91.1H76.792Z" transform="translate(-42.007 -33.659)" fill="#1a1a18"/>
      </g>
    </g>
  </g>
</svg>
