<svg xmlns="http://www.w3.org/2000/svg" width="86.728" height="96.735" viewBox="0 0 86.728 96.735">
  <g id="Groupe_200" data-name="Groupe 200" transform="translate(-811.789 -363.994)">
    <g id="flat" transform="translate(811.789 363.994)">
      <path id="Tracé_148" data-name="Tracé 148" d="M138.714,126.389H75.336v-6.671H72V48h66.714Z" transform="translate(-65.329 -42.997)" fill="#b0b7ab"/>
      <path id="Tracé_149" data-name="Tracé 149" d="M132.042,100.721H72V24h48.368V35.675h11.675Z" transform="translate(-65.329 -24)" fill="#fff"/>
      <path id="Tracé_150" data-name="Tracé 150" d="M46.671,61.343a6.671,6.671,0,0,1,0-13.343,1.668,1.668,0,1,1,0,3.336A3.336,3.336,0,1,0,49.9,55.507a1.668,1.668,0,1,1,3.231.831A6.668,6.668,0,0,1,46.671,61.343Z" transform="translate(-40 -42.997)" fill="#8d795d"/>
      <path id="Tracé_151" data-name="Tracé 151" d="M46.671,141.343a6.671,6.671,0,0,1,0-13.343,1.668,1.668,0,1,1,0,3.336,3.336,3.336,0,1,0,3.231,4.171,1.668,1.668,0,0,1,3.231.831A6.668,6.668,0,0,1,46.671,141.343Z" transform="translate(-40 -106.318)" fill="#8d795d"/>
      <path id="Tracé_152" data-name="Tracé 152" d="M46.671,221.343a6.671,6.671,0,0,1,0-13.343,1.668,1.668,0,0,1,0,3.336,3.336,3.336,0,1,0,3.231,4.171,1.668,1.668,0,1,1,3.231.831,6.668,6.668,0,0,1-6.463,5Z" transform="translate(-40 -169.64)" fill="#8d795d"/>
      <path id="Tracé_153" data-name="Tracé 153" d="M46.671,293.343a6.671,6.671,0,0,1,0-13.343,1.668,1.668,0,1,1,0,3.336,3.336,3.336,0,1,0,3.231,4.171,1.668,1.668,0,1,1,3.231.831A6.668,6.668,0,0,1,46.671,293.343Z" transform="translate(-40 -226.629)" fill="#8d795d"/>
      <g id="Groupe_151" data-name="Groupe 151" transform="translate(18.346)">
        <path id="Tracé_154" data-name="Tracé 154" d="M166.36,107.336H129.668a1.668,1.668,0,1,1,0-3.336H166.36a1.668,1.668,0,0,1,0,3.336Z" transform="translate(-128 -87.322)" fill="#666"/>
        <path id="Tracé_155" data-name="Tracé 155" d="M166.36,155.336H129.668a1.668,1.668,0,1,1,0-3.336H166.36a1.668,1.668,0,1,1,0,3.336Z" transform="translate(-128 -125.314)" fill="#666"/>
        <path id="Tracé_156" data-name="Tracé 156" d="M166.36,203.336H129.668a1.668,1.668,0,1,1,0-3.336H166.36a1.668,1.668,0,1,1,0,3.336Z" transform="translate(-128 -163.307)" fill="#666"/>
        <path id="Tracé_157" data-name="Tracé 157" d="M166.36,251.336H129.668a1.668,1.668,0,1,1,0-3.336H166.36a1.668,1.668,0,1,1,0,3.336Z" transform="translate(-128 -201.3)" fill="#666"/>
        <path id="Tracé_158" data-name="Tracé 158" d="M315.675,35.675H304V24Z" transform="translate(-267.307 -24)" fill="#dfefd5"/>
        <path id="Tracé_159" data-name="Tracé 159" d="M143.011,299.336H129.668a1.668,1.668,0,1,1,0-3.336h13.343a1.668,1.668,0,1,1,0,3.336Z" transform="translate(-128 -239.293)" fill="#666"/>
      </g>
      <path id="Tracé_160" data-name="Tracé 160" d="M0,0H6.671V46.7H0Z" transform="translate(76.295 47.603) rotate(30.384)" fill="#088559"/>
      <path id="Tracé_161" data-name="Tracé 161" d="M286.291,454.281l1.339-8.881,5.756,3.373Z" transform="translate(-234.944 -357.546)" fill="#f08648"/>
      <path id="Tracé_162" data-name="Tracé 162" d="M0,0H5V6.671H0Z" transform="translate(76.342 47.561) rotate(-59.616)" fill="#cbcbcb"/>
      <path id="Tracé_163" data-name="Tracé 163" d="M419.79,211.368l-1.687,2.877,5.756,3.373,1.687-2.877a3.336,3.336,0,0,0-5.756-3.373Z" transform="translate(-339.276 -171)" fill="#ea5a06"/>
    </g>
  </g>
</svg>
