<svg xmlns="http://www.w3.org/2000/svg" width="74.074" height="84.656" viewBox="0 0 74.074 84.656">
  <g id="Groupe_204" data-name="Groupe 204" transform="translate(-66.55 -547.287)">
    <g id="doc" transform="translate(66.55 547.287)">
      <path id="Tracé_225" data-name="Tracé 225" d="M101.291,0A5.307,5.307,0,0,0,96,5.291V79.365a5.307,5.307,0,0,0,5.291,5.291H154.2a5.307,5.307,0,0,0,5.291-5.291v-58.2L138.328,0Z" transform="translate(-85.418)" fill="#ededed"/>
      <path id="Tracé_226" data-name="Tracé 226" d="M357.291,21.164h15.873L352,0V15.873A5.307,5.307,0,0,0,357.291,21.164Z" transform="translate(-299.09)" fill="#b0b7ab"/>
      <path id="Tracé_227" data-name="Tracé 227" d="M399.873,143.873,384,128h15.873Z" transform="translate(-325.799 -106.836)" fill="#d0d3cf"/>
      <path id="Tracé_228" data-name="Tracé 228" d="M95.492,269.1a2.653,2.653,0,0,1-2.646,2.646h-58.2A2.653,2.653,0,0,1,32,269.1V242.646A2.653,2.653,0,0,1,34.646,240h58.2a2.653,2.653,0,0,1,2.646,2.646Z" transform="translate(-32 -200.317)" fill="#ea5a06"/>
      <g id="Groupe_188" data-name="Groupe 188" transform="translate(8.556 48.325)">
        <path id="Tracé_229" data-name="Tracé 229" d="M85.2,310.11a1.326,1.326,0,0,1-1.46-1.312V296.784a1.437,1.437,0,0,1,1.46-1.312h4.844c9.667,0,9.452,14.638.188,14.638Zm1.333-12.058v9.476h3.511c5.712,0,5.963-9.476,0-9.476Z" transform="translate(-83.744 -294.943)" fill="#fff"/>
        <path id="Tracé_230" data-name="Tracé 230" d="M187.736,307.65a7.387,7.387,0,0,1-7.976-7.616c0-5.2,4.061-7.762,7.976-7.762,3.7.188,7.571,2.749,7.571,7.762A7.377,7.377,0,0,1,187.736,307.65Zm-.233-12.627a5.015,5.015,0,1,0,5.034,5.013A4.841,4.841,0,0,0,187.5,295.023Z" transform="translate(-163.884 -292.272)" fill="#fff"/>
        <path id="Tracé_231" data-name="Tracé 231" d="M288.848,300.761c0-4.082,2.561-7.593,7.426-7.593a6.913,6.913,0,0,1,4.844,1.884,1.372,1.372,0,1,1-1.884,1.987,3.65,3.65,0,0,0-2.96-1.161,4.571,4.571,0,0,0-4.82,4.886c0,2.624,1.542,5.034,4.82,5.034a4.941,4.941,0,0,0,3.3-1.354,1.42,1.42,0,0,1,1.944.254,1.459,1.459,0,0,1-.233,1.987,6.918,6.918,0,0,1-5.016,1.653C291.155,308.337,288.848,304.843,288.848,300.761Z" transform="translate(-254.935 -293.02)" fill="#fff"/>
      </g>
      <path id="Tracé_232" data-name="Tracé 232" d="M146.265,418.645H96v2.646h50.265a2.653,2.653,0,0,0,2.646-2.646V416A2.653,2.653,0,0,1,146.265,418.645Z" transform="translate(-85.418 -347.217)" fill="#cad1d8"/>
    </g>
  </g>
</svg>
