<svg xmlns="http://www.w3.org/2000/svg" width="93.821" height="92.761" viewBox="0 0 93.821 92.761">
  <g id="Groupe_206" data-name="Groupe 206" transform="translate(-1000.473 -463.838)">
    <g id="analysis" transform="translate(1000.473 464.366)">
      <path id="Tracé_164" data-name="Tracé 164" d="M192.635,251.116a27.048,27.048,0,0,1-32.635,4.3L173.519,232Z" transform="translate(-132.967 -190.653)" fill="#8d795d" stroke="#fff" stroke-width="1"/>
      <path id="Tracé_165" data-name="Tracé 165" d="M134.037,51.023H107L93.485,74.438a27.035,27.035,0,1,1,40.552-23.415Z" transform="translate(-68.839 -23.987)" fill="#ea5a06" stroke="#fff" stroke-width="1"/>
      <path id="Tracé_166" data-name="Tracé 166" d="M188.542,51.033H161.509L147.99,27.618a27.04,27.04,0,0,1,40.552,23.415Z" transform="translate(-123.344 -23.997)" fill="#088559" stroke="#fff" stroke-width="1"/>
      <path id="Tracé_167" data-name="Tracé 167" d="M283.033,199.83a26.948,26.948,0,0,1-7.917,19.116L256,199.83Z" transform="translate(-209.885 -164.877)" fill="#d3ca6c" stroke="#fff" stroke-width="1"/>
      <path id="Tracé_168" data-name="Tracé 168" d="M28.771,257.247H57.394a4.771,4.771,0,0,0,4.771-4.771V209.541L52.623,200H28.771A4.771,4.771,0,0,0,24,204.771v47.706A4.771,4.771,0,0,0,28.771,257.247Z" transform="translate(-24 -165.013)" fill="#fff"/>
      <g id="Groupe_152" data-name="Groupe 152" transform="translate(4.771 34.987)">
        <path id="Tracé_169" data-name="Tracé 169" d="M168,200v9.541h9.541Z" transform="translate(-144.147 -200)" fill="#dfefd5"/>
        <path id="Tracé_170" data-name="Tracé 170" d="M48,224h6.361v3.18H48Z" transform="translate(-48 -219.229)" fill="#088559"/>
        <path id="Tracé_171" data-name="Tracé 171" d="M80,272H95.9v3.18H80Z" transform="translate(-73.639 -257.688)" fill="#088559"/>
        <path id="Tracé_172" data-name="Tracé 172" d="M176,272h3.18v3.18H176Z" transform="translate(-150.557 -257.688)" fill="#088559"/>
        <path id="Tracé_173" data-name="Tracé 173" d="M160,336h6.361v3.18H160Z" transform="translate(-137.737 -308.967)" fill="#088559"/>
        <path id="Tracé_174" data-name="Tracé 174" d="M48,336H67.082v3.18H48Z" transform="translate(-48 -308.967)" fill="#088559"/>
        <path id="Tracé_175" data-name="Tracé 175" d="M128,304h12.721v3.18H128Z" transform="translate(-112.098 -283.328)" fill="#088559"/>
        <path id="Tracé_176" data-name="Tracé 176" d="M48,304H60.721v3.18H48Z" transform="translate(-48 -283.328)" fill="#088559"/>
        <path id="Tracé_177" data-name="Tracé 177" d="M48,368h9.541v3.18H48Z" transform="translate(-48 -334.606)" fill="#088559"/>
        <path id="Tracé_178" data-name="Tracé 178" d="M112,368h15.9v3.18H112Z" transform="translate(-99.279 -334.606)" fill="#088559"/>
        <path id="Tracé_179" data-name="Tracé 179" d="M48,400H63.9v3.18H48Z" transform="translate(-48 -360.245)" fill="#088559"/>
        <path id="Tracé_180" data-name="Tracé 180" d="M144.8,400H151v3.18h-6.2Z" transform="translate(-125.557 -360.245)" fill="#088559"/>
        <path id="Tracé_181" data-name="Tracé 181" d="M152.8,432H159v3.18h-6.2Z" transform="translate(-131.967 -385.885)" fill="#088559"/>
      </g>
      <path id="Tracé_182" data-name="Tracé 182" d="M281.632,342.6H253.008a1.591,1.591,0,0,1-1.124-.466l-9.541-9.541,2.249-2.249,9.075,9.075h27.965Z" transform="translate(-198.942 -269.448)" fill="#ea5a06"/>
      <rect id="Rectangle_30" data-name="Rectangle 30" width="25.443" height="15.902" rx="7.951" transform="translate(55.657 76.331)" fill="#9bd373"/>
      <path id="Tracé_183" data-name="Tracé 183" d="M336,424h9.541v3.18H336Z" transform="translate(-273.983 -344.488)" fill="#088559"/>
      <path id="Tracé_184" data-name="Tracé 184" d="M400,424h3.18v3.18H400Z" transform="translate(-325.261 -344.488)" fill="#088559"/>
      <path id="Tracé_185" data-name="Tracé 185" d="M320,456h3.18v3.18H320Z" transform="translate(-261.163 -370.128)" fill="#088559"/>
      <path id="Tracé_186" data-name="Tracé 186" d="M352,456h9.541v3.18H352Z" transform="translate(-286.802 -370.128)" fill="#088559"/>
      <rect id="Rectangle_31" data-name="Rectangle 31" width="22.263" height="15.902" rx="7.951" transform="translate(69.968 9.544)" fill="#f08648"/>
      <path id="Tracé_187" data-name="Tracé 187" d="M408,88h6.361v3.18H408Z" transform="translate(-331.671 -75.276)" fill="#ea5a06"/>
      <path id="Tracé_188" data-name="Tracé 188" d="M456,88h3.18v3.18H456Z" transform="translate(-370.13 -75.276)" fill="#ea5a06"/>
      <path id="Tracé_189" data-name="Tracé 189" d="M392,120h3.18v3.18H392Z" transform="translate(-318.852 -100.915)" fill="#ea5a06"/>
      <path id="Tracé_190" data-name="Tracé 190" d="M424,120h6.361v3.18H424Z" transform="translate(-344.491 -100.915)" fill="#ea5a06"/>
      <path id="Tracé_191" data-name="Tracé 191" d="M324.592,178.666l-2.249-2.249,7.951-7.951a1.591,1.591,0,0,1,1.125-.466h25.443v3.18H332.077Z" transform="translate(-263.04 -139.374)" fill="#ea5a06"/>
    </g>
  </g>
</svg>
