<svg xmlns="http://www.w3.org/2000/svg" width="88.403" height="88.403" viewBox="0 0 88.403 88.403">
  <g id="Groupe_203" data-name="Groupe 203" transform="translate(-1370.214 -392.908)">
    <g id="analysis_1_" data-name="analysis (1)" transform="translate(1370.214 392.908)">
      <path id="Tracé_192" data-name="Tracé 192" d="M2,2H60.935V90.4H2Z" transform="translate(-2 -2)" fill="#f2f2f2"/>
      <ellipse id="Ellipse_27" data-name="Ellipse 27" cx="22.164" cy="22.048" rx="22.164" ry="22.048" transform="translate(27.92 28.062)" fill="#8d9ca8"/>
      <path id="Tracé_418" data-name="Tracé 418" d="M16.13,0A16.246,16.246,0,1,1,0,16.246,16.188,16.188,0,0,1,16.13,0Z" transform="translate(33.954 33.864)" fill="#f2f2f2"/>
      <path id="Tracé_193" data-name="Tracé 193" d="M57.84,49,49,57.84l8.482,8.482a6.251,6.251,0,1,0,8.84-8.84Z" transform="translate(20.249 20.249)" fill="#ea5a06"/>
      <path id="Tracé_194" data-name="Tracé 194" d="M56.894,49,51,54.894l5.536,5.536a6.221,6.221,0,0,0,9.9-1.473,6.237,6.237,0,0,0-1.061-1.473Z" transform="translate(21.196 20.249)" fill="#f08648"/>
      <path id="Tracé_195" data-name="Tracé 195" d="M58.536,52.643l-8.226-8.226a22.2,22.2,0,0,1-5.894,5.894l8.226,8.226Z" transform="translate(18.08 18.08)" fill="#8796a1"/>
      <path id="Tracé_197" data-name="Tracé 197" d="M46.083,48.345l4.73,4.73a1.473,1.473,0,0,0,2.083,0l2.642-2.642-6.016-6.016A22.176,22.176,0,0,1,46.083,48.345Z" transform="translate(18.868 18.08)" fill="#8796a1"/>
      <path id="Tracé_198" data-name="Tracé 198" d="M42,53.951a16.207,16.207,0,0,0,0-27.172Z" transform="translate(16.936 9.73)" fill="#f2f2f2"/>
      <path id="Tracé_199" data-name="Tracé 199" d="M37.84,24.836V13H29V27.336a21.967,21.967,0,0,1,8.84-2.5Z" transform="translate(10.782 3.207)" fill="#095c3f"/>
      <path id="Tracé_200" data-name="Tracé 200" d="M29,53.689V28.683a16.135,16.135,0,0,1,8.84-3.638V57.327A16.135,16.135,0,0,1,29,53.689Z" transform="translate(10.782 8.909)" fill="#095c3f"/>
      <path id="Tracé_201" data-name="Tracé 201" d="M26.84,57.308a22.11,22.11,0,0,1,0-26.521V19H18V57.308Z" transform="translate(5.574 6.048)" fill="#7fbf51"/>
      <path id="Tracé_202" data-name="Tracé 202" d="M39.169,50.894H6V45H32.521a22.217,22.217,0,0,0,6.649,5.894Z" transform="translate(-0.106 18.356)" fill="#ea5a06"/>
      <path id="Tracé_203" data-name="Tracé 203" d="M8,53.521V27h8.84V53.521" transform="translate(0.84 9.835)" fill="#7fbf51"/>
      <path id="Tracé_204" data-name="Tracé 204" d="M12.42,46.154V27H8V49.1H9.473A2.947,2.947,0,0,0,12.42,46.154Z" transform="translate(0.84 9.835)" fill="#9bd373"/>
      <g id="Groupe_153" data-name="Groupe 153" transform="translate(4.42 7.367)">
        <path id="Tracé_205" data-name="Tracé 205" d="M7,7H18.787V9.947H7Z" transform="translate(-4.053 -7)" fill="#666"/>
        <path id="Tracé_206" data-name="Tracé 206" d="M5,11H19.734v2.947H5Z" transform="translate(-5 -5.106)" fill="#666"/>
        <path id="Tracé_207" data-name="Tracé 207" d="M5,15H19.734v2.947H5Z" transform="translate(-5 -3.213)" fill="#666"/>
        <path id="Tracé_208" data-name="Tracé 208" d="M21,57H41.627v2.947H21Z" transform="translate(2.574 16.669)" fill="#666"/>
        <path id="Tracé_209" data-name="Tracé 209" d="M37,57h2.947v2.947H37Z" transform="translate(10.148 16.669)" fill="#666"/>
        <path id="Tracé_210" data-name="Tracé 210" d="M21,53H41.627v2.947H21Z" transform="translate(2.574 14.776)" fill="#666"/>
        <path id="Tracé_211" data-name="Tracé 211" d="M37,53h2.947v2.947H37Z" transform="translate(10.148 14.776)" fill="#666"/>
      </g>
      <path id="Tracé_212" data-name="Tracé 212" d="M33.42,49.689V25.757A16.216,16.216,0,0,0,29,28.346V51.163h2.947A1.473,1.473,0,0,0,33.42,49.689Z" transform="translate(10.782 9.246)" fill="#088559"/>
      <path id="Tracé_213" data-name="Tracé 213" d="M33.42,13H29V27.336a21.953,21.953,0,0,1,4.42-1.744Z" transform="translate(10.782 3.207)" fill="#088559"/>
      <path id="Tracé_214" data-name="Tracé 214" d="M18,19V52.888h1.473a2.947,2.947,0,0,0,2.947-2.947V19Z" transform="translate(5.574 6.048)" fill="#9bd373"/>
    </g>
  </g>
</svg>
